HIERARCHY
ROOT Hips
{
    OFFSET 0.000000 0.000000 0.000000
    CHANNELS 6 Xposition Yposition Zposition Zrotation Yrotation Xrotation
    JOINT Chest
    {
        OFFSET 0.000000 1.634758 -0.000000
        CHANNELS 3 Zrotation Yrotation Xrotation
        JOINT Chest2
        {
            OFFSET 0.000000 2.197341 0.000000
            CHANNELS 3 Zrotation Yrotation Xrotation
            JOINT Neck
            {
                OFFSET 0.000000 0.961544 0.000000
                CHANNELS 3 Zrotation Yrotation Xrotation
                JOINT Head
                {
                    OFFSET 0.000000 0.632542 -0.032565
                    CHANNELS 3 Zrotation Yrotation Xrotation
                    End Site
                    {
                        OFFSET -0.000001 0.439502 2.922845
                    }
                }
            }
            JOINT LeftCollar
            {
                OFFSET 0.167536 0.778237 -0.168280
                CHANNELS 3 Zrotation Yrotation Xrotation
                JOINT LeftShoulder
                {
                    OFFSET 0.831514 -0.002900 0.006458
                    CHANNELS 3 Zrotation Yrotation Xrotation
                    JOINT LeftElbow
                    {
                        OFFSET 2.272872 -0.026639 0.059314
                        CHANNELS 3 Zrotation Yrotation Xrotation
                        JOINT LeftWrist
                        {
                            OFFSET 2.081982 -0.024402 0.054333
                            CHANNELS 3 Zrotation Yrotation Xrotation
                            JOINT LeftHandThumb1
                            {
                                OFFSET 0.218903 -0.128645 0.283837
                                CHANNELS 3 Zrotation Yrotation Xrotation
                                JOINT LeftHandThumb2
                                {
                                    OFFSET 0.137157 -0.025101 0.077902
                                    CHANNELS 3 Zrotation Yrotation Xrotation
                                    JOINT LeftHandThumb3
                                    {
                                        OFFSET 0.163651 -0.080453 -0.016883
                                        CHANNELS 3 Zrotation Yrotation Xrotation
                                        End Site
                                        {
                                            OFFSET 0.248054 -0.075713 -0.067625
                                        }
                                    }
                                }
                            }
                            JOINT LeftHandFore1
                            {
                                OFFSET 0.767340 -0.016076 0.196678
                                CHANNELS 3 Zrotation Yrotation Xrotation
                                JOINT LeftHandFore2
                                {
                                    OFFSET 0.195889 -0.091950 0.012965
                                    CHANNELS 3 Zrotation Yrotation Xrotation
                                    JOINT LeftHandFore3
                                    {
                                        OFFSET 0.090152 -0.092508 0.008820
                                        CHANNELS 3 Zrotation Yrotation Xrotation
                                        End Site
                                        {
                                            OFFSET 0.099674 -0.165346 0.009626
                                        }
                                    }
                                }
                            }
                            JOINT LeftHandMiddle1
                            {
                                OFFSET 0.709887 -0.008320 0.018526
                                CHANNELS 3 Zrotation Yrotation Xrotation
                                JOINT LeftHandMiddle2
                                {
                                    OFFSET 0.175292 -0.171018 0.009463
                                    CHANNELS 3 Zrotation Yrotation Xrotation
                                    JOINT LeftHandMiddle3
                                    {
                                        OFFSET 0.021084 -0.144579 0.005963
                                        CHANNELS 3 Zrotation Yrotation Xrotation
                                        End Site
                                        {
                                            OFFSET -0.088310 -0.218549 0.008263
                                        }
                                    }
                                }
                            }
                            JOINT LeftHandRing1
                            {
                                OFFSET 0.743817 -0.005823 -0.153668
                                CHANNELS 3 Zrotation Yrotation Xrotation
                                JOINT LeftHandRing2
                                {
                                    OFFSET 0.186666 -0.299460 -0.014570
                                    CHANNELS 3 Zrotation Yrotation Xrotation
                                    JOINT LeftHandRing3
                                    {
                                        OFFSET -0.046603 -0.128167 -0.002620
                                        CHANNELS 3 Zrotation Yrotation Xrotation
                                        End Site
                                        {
                                            OFFSET -0.106047 -0.056302 -0.001969
                                        }
                                    }
                                }
                            }
                            JOINT LeftHandLittle1
                            {
                                OFFSET 0.689408 -0.053302 -0.308304
                                CHANNELS 3 Zrotation Yrotation Xrotation
                                JOINT LeftHandLittle2
                                {
                                    OFFSET 0.037061 -0.188151 -0.035773
                                    CHANNELS 3 Zrotation Yrotation Xrotation
                                    JOINT LeftHandLittle3
                                    {
                                        OFFSET -0.111122 -0.034648 -0.030784
                                        CHANNELS 3 Zrotation Yrotation Xrotation
                                        End Site
                                        {
                                            OFFSET -0.160518 0.100930 -0.018325
                                        }
                                    }
                                }
                            }
                        }
                    }
                }
            }
            JOINT RightCollar
            {
                OFFSET -0.167536 0.778237 -0.168280
                CHANNELS 3 Zrotation Yrotation Xrotation
                JOINT RightShoulder
                {
                    OFFSET -0.831514 -0.002900 0.006457
                    CHANNELS 3 Zrotation Yrotation Xrotation
                    JOINT RightElbow
                    {
                        OFFSET -2.272872 -0.026639 0.059313
                        CHANNELS 3 Zrotation Yrotation Xrotation
                        JOINT RightWrist
                        {
                            OFFSET -2.081982 -0.024402 0.054331
                            CHANNELS 3 Zrotation Yrotation Xrotation
                            JOINT RightHandThumb1
                            {
                                OFFSET -0.218911 -0.128571 0.283837
                                CHANNELS 3 Zrotation Yrotation Xrotation
                                JOINT RightHandThumb2
                                {
                                    OFFSET -0.137157 -0.025101 0.077902
                                    CHANNELS 3 Zrotation Yrotation Xrotation
                                    JOINT RightHandThumb3
                                    {
                                        OFFSET -0.161119 -0.083253 0.025471
                                        CHANNELS 3 Zrotation Yrotation Xrotation
                                        End Site
                                        {
                                            OFFSET -0.220621 -0.124615 0.087373
                                        }
                                    }
                                }
                            }
                            JOINT RightHandFore1
                            {
                                OFFSET -0.767344 -0.015991 0.196679
                                CHANNELS 3 Zrotation Yrotation Xrotation
                                JOINT RightHandFore2
                                {
                                    OFFSET -0.209499 -0.054481 0.011788
                                    CHANNELS 3 Zrotation Yrotation Xrotation
                                    JOINT RightHandFore3
                                    {
                                        OFFSET -0.117585 -0.053809 0.006365
                                        CHANNELS 3 Zrotation Yrotation Xrotation
                                        End Site
                                        {
                                            OFFSET -0.169084 -0.092785 0.012973
                                        }
                                    }
                                }
                            }
                            JOINT RightHandMiddle1
                            {
                                OFFSET -0.709887 -0.008302 0.018525
                                CHANNELS 3 Zrotation Yrotation Xrotation
                                JOINT RightHandMiddle2
                                {
                                    OFFSET -0.225178 -0.096380 0.008216
                                    CHANNELS 3 Zrotation Yrotation Xrotation
                                    JOINT RightHandMiddle3
                                    {
                                        OFFSET -0.112918 -0.092858 0.003357
                                        CHANNELS 3 Zrotation Yrotation Xrotation
                                        End Site
                                        {
                                            OFFSET -0.146466 -0.184854 0.002666
                                        }
                                    }
                                }
                            }
                            JOINT RightHandRing1
                            {
                                OFFSET -0.743819 -0.005785 -0.153669
                                CHANNELS 3 Zrotation Yrotation Xrotation
                                JOINT RightHandRing2
                                {
                                    OFFSET -0.305590 -0.176807 -0.009356
                                    CHANNELS 3 Zrotation Yrotation Xrotation
                                    JOINT RightHandRing3
                                    {
                                        OFFSET -0.080470 -0.109581 -0.011025
                                        CHANNELS 3 Zrotation Yrotation Xrotation
                                        End Site
                                        {
                                            OFFSET -0.037550 -0.113607 -0.010173
                                        }
                                    }
                                }
                            }
                            JOINT RightHandLittle1
                            {
                                OFFSET -0.689403 -0.053298 -0.308303
                                CHANNELS 3 Zrotation Yrotation Xrotation
                                JOINT RightHandLittle2
                                {
                                    OFFSET -0.153563 -0.118379 -0.021450
                                    CHANNELS 3 Zrotation Yrotation Xrotation
                                    JOINT RightHandLittle3
                                    {
                                        OFFSET -0.025917 -0.116755 -0.013863
                                        CHANNELS 3 Zrotation Yrotation Xrotation
                                        End Site
                                        {
                                            OFFSET 0.003494 -0.188622 -0.026422
                                        }
                                    }
                                }
                            }
                        }
                    }
                }
            }
        }
    }
    JOINT LeftHip
    {
        OFFSET 0.685143 0.673822 -0.044491
        CHANNELS 3 Zrotation Yrotation Xrotation
        JOINT LeftKnee
        {
            OFFSET 0.085364 -3.750208 0.017676
            CHANNELS 3 Zrotation Yrotation Xrotation
            JOINT LeftAnkle
            {
                OFFSET 0.094583 -4.155206 0.019585
                CHANNELS 3 Zrotation Yrotation Xrotation
                JOINT LeftToe
                {
                    OFFSET -0.000000 -0.395925 0.621478
                    CHANNELS 3 Zrotation Yrotation Xrotation
                    End Site
                    {
                        OFFSET -0.000000 -0.077878 0.321152
                    }
                }
            }
        }
    }
    JOINT RightHip
    {
        OFFSET -0.685143 0.673822 -0.044492
        CHANNELS 3 Zrotation Yrotation Xrotation
        JOINT RightKnee
        {
            OFFSET -0.085364 -3.750208 0.017677
            CHANNELS 3 Zrotation Yrotation Xrotation
            JOINT RightAnkle
            {
                OFFSET -0.094583 -4.155206 0.019585
                CHANNELS 3 Zrotation Yrotation Xrotation
                JOINT RightToe
                {
                    OFFSET -0.000000 -0.395925 0.621478
                    CHANNELS 3 Zrotation Yrotation Xrotation
                    End Site
                    {
                        OFFSET -0.000000 -0.077878 0.321152
                    }
                }
            }
        }
    }
}
MOTION
Frames: 4
Frame Time: 0.033333
-0.013646 8.272406 -0.557542 180.000000 -0.000011 180.000000 -0.000002 0.000000 -3.571784 -0.000002 -0.000000 -3.645255 0.000003 -0.000003 4.684103 0.000005 -0.000009 11.067131 -14.153526 1.850782 0.006463 -56.042679 5.832549 -0.942142 0.000002 0.000000 0.000000 -4.824240 -13.773893 0.259870 -0.000004 0.000003 -0.000002 -0.000004 0.000003 0.000003 0.000004 -0.000003 0.000003 -0.000002 -0.000001 0.000000 -0.000005 -0.000002 -0.000000 -0.000000 -0.000002 -0.000001 -0.000000 0.000001 -0.000000 0.000007 -0.000003 -0.000000 -0.000003 -0.000002 0.000000 -0.000002 -0.000000 -0.000000 -0.000000 -0.000000 -0.000001 0.000002 -0.000000 -0.000000 -0.000002 -0.000000 -0.000001 0.000001 0.000002 0.000000 0.000004 0.000002 -0.000001 14.407442 -6.345287 0.022210 68.404427 -32.135963 -9.601744 -0.055858 22.890688 -0.283186 14.076869 -25.373850 11.050189 0.000004 -0.000003 0.000000 -0.000003 0.000005 -0.000002 0.000000 0.000003 0.000003 -0.000001 -0.000000 0.000000 -0.000000 0.000002 0.000001 0.000004 0.000002 -0.000001 0.000001 -0.000000 0.000000 0.000002 -0.000005 -0.000001 0.000002 0.000003 0.000000 0.000006 -0.000003 0.000001 0.000004 0.000005 0.000000 -0.000005 -0.000000 -0.000000 0.000007 -0.000003 0.000001 -0.000004 0.000003 0.000000 -0.000000 0.000005 0.000001 -3.455349 -0.528240 -13.046917 0.212216 0.713047 33.145302 1.450766 3.631141 -27.485405 -0.000000 -0.000001 -0.000002 4.907808 -0.376048 -18.034395 -0.149697 -0.606689 27.722994 -2.166219 -3.330363 -17.139404 -0.000000 0.000000 0.000002
-0.013566 8.272363 -0.557813 -180.000000 0.140906 180.000000 0.008862 0.002844 -3.573007 0.009134 -0.001122 -3.646500 -0.004642 -0.151396 4.684834 0.014952 -0.290349 11.068493 -14.156972 1.853869 0.006057 -56.058880 5.837048 -0.944296 -0.000005 0.000000 0.000000 -4.824125 -13.771306 0.262447 -0.000008 -0.000002 -0.000000 0.000001 -0.000001 0.000000 -0.000001 -0.000002 0.000001 -0.000014 -0.000002 -0.000001 -0.000009 0.000001 0.000001 0.000006 -0.000003 -0.000002 -0.000010 -0.000002 -0.000001 0.000003 -0.000002 0.000000 -0.000001 0.000003 -0.000000 -0.000003 -0.000002 -0.000000 0.000001 -0.000000 -0.000000 0.000000 -0.000000 0.000000 -0.000010 -0.000008 -0.000006 0.000002 -0.000002 0.000001 -0.000000 0.000001 0.000000 14.403399 -6.330703 0.022595 68.354080 -32.138412 -9.563109 -0.056346 22.983135 -0.284461 14.070352 -25.374422 11.052855 -0.000005 -0.000009 -0.000001 0.000000 0.000005 0.000002 -0.000001 -0.000000 0.000004 0.000005 -0.000005 -0.000001 0.000003 -0.000003 -0.000001 -0.000004 -0.000000 -0.000001 0.000008 0.000002 -0.000005 0.000000 0.000002 0.000003 0.000005 -0.000005 -0.000002 0.000009 0.000002 0.000000 0.000004 0.000002 0.000000 -0.000005 -0.000002 0.000000 -0.000008 0.000002 -0.000008 -0.000006 -0.000000 -0.000000 0.000001 0.000003 0.000001 -3.465924 -0.527107 -13.037168 0.212203 0.713028 33.144314 1.508023 3.752362 -27.497416 0.000000 0.000000 0.000001 4.915478 -0.376802 -18.034966 -0.149674 -0.606647 27.720884 -2.102913 -3.223606 -17.128967 -0.000000 -0.000000 0.000004
-0.013330 8.272238 -0.558611 180.000000 0.530507 180.000000 0.033421 0.010730 -3.576473 0.034446 -0.004227 -3.650035 -0.011753 -0.380634 4.686912 0.037790 -0.733904 11.071103 -14.166443 1.862586 0.004915 -56.102737 5.850013 -0.950394 -0.000000 0.000000 0.000000 -4.823757 -13.763635 0.270090 0.000001 0.000002 0.000007 -0.000001 -0.000001 0.000004 -0.000001 -0.000001 0.000000 -0.000011 -0.000003 0.000001 -0.000007 -0.000003 -0.000001 -0.000001 0.000001 -0.000000 -0.000015 -0.000002 0.000001 0.000003 -0.000000 -0.000002 -0.000001 -0.000000 0.000000 -0.000009 -0.000002 -0.000002 -0.000001 -0.000005 0.000001 -0.000003 0.000002 0.000001 -0.000011 -0.000005 -0.000006 0.000004 -0.000003 -0.000001 -0.000001 0.000003 0.000003 14.392282 -6.290293 0.023645 68.215034 -32.142807 -9.456526 -0.057686 23.234488 -0.287933 14.051135 -25.376110 11.060712 -0.000012 0.000005 -0.000003 -0.000003 0.000002 0.000003 0.000001 0.000002 0.000001 -0.000006 0.000002 -0.000000 0.000002 -0.000002 -0.000001 0.000000 -0.000002 -0.000001 -0.000001 0.000005 0.000000 0.000003 -0.000000 0.000001 0.000004 0.000003 0.000002 0.000005 -0.000000 0.000003 0.000003 -0.000002 0.000001 -0.000002 -0.000000 -0.000000 -0.000012 0.000002 -0.000000 -0.000008 -0.000000 -0.000001 0.000002 0.000003 0.000001 -3.495191 -0.523764 -13.010538 0.212182 0.712995 33.142586 1.666259 4.087468 -27.529333 -0.000000 -0.000001 0.000001 4.936552 -0.379074 -18.036316 -0.149616 -0.606538 27.715498 -1.927788 -2.928403 -17.098570 -0.000000 -0.000001 0.000005
-0.012938 8.272030 -0.559917 180.000000 1.119048 180.000000 0.070656 0.022684 -3.581781 0.072824 -0.008931 -3.655451 -0.012837 -0.408364 4.690187 0.041189 -0.799924 11.076478 -14.180573 1.876072 0.003186 -56.166634 5.870450 -0.959741 0.000001 0.000000 0.000000 -4.823169 -13.751015 0.282672 -0.000003 -0.000004 0.000007 -0.000001 -0.000002 0.000005 -0.000001 -0.000000 0.000001 -0.000000 0.000002 0.000001 -0.000004 -0.000000 -0.000000 -0.000002 -0.000001 0.000001 -0.000003 -0.000003 -0.000002 0.000002 0.000001 0.000000 0.000002 -0.000003 -0.000001 0.000006 -0.000003 -0.000004 0.000002 0.000003 0.000002 -0.000003 0.000001 0.000000 -0.000009 -0.000003 -0.000001 -0.000000 0.000003 -0.000001 -0.000003 0.000003 -0.000001 14.375632 -6.228947 0.025235 68.005531 -32.144047 -9.296258 -0.059713 23.605185 -0.293081 14.019741 -25.378866 11.073550 -0.000016 0.000002 0.000006 0.000000 0.000002 -0.000001 -0.000003 0.000003 0.000002 -0.000008 -0.000000 -0.000002 -0.000001 -0.000003 0.000001 -0.000001 0.000002 -0.000000 -0.000009 0.000007 -0.000005 0.000004 -0.000003 0.000001 0.000001 -0.000000 0.000001 -0.000007 0.000005 0.000002 -0.000002 0.000002 0.000001 -0.000003 -0.000003 0.000000 -0.000013 0.000005 0.000002 -0.000005 -0.000000 -0.000001 -0.000000 0.000003 0.000002 -3.539597 -0.518348 -12.971052 0.212175 0.712984 33.142006 1.905205 4.593791 -27.573261 -0.000000 -0.000000 0.000000 4.968109 -0.382816 -18.038324 -0.149550 -0.606410 27.709146 -1.663003 -2.482574 -17.048275 0.000000 -0.000001 0.000005
